<svg xmlns="http://www.w3.org/2000/svg" height="24" viewBox="0 -960 960 960" width="24"><path d="M240-80q-33 0-56.5-23.5T160-160v-480q0-33 23.5-56.5T240-720h80q0-66 47-113t113-47q66 0 113 47t47 113h80q33 0 56.5 23.5T800-640v480q0 33-23.5 56.5T720-80H240Zm160-640h160q0-33-23.5-56.5T480-800q-33 0-56.5 23.5T400-720Zm200 200q17 0 28.5-11.5T640-560v-80h-80v80q0 17 11.5 28.5T600-520Zm-240 0q17 0 28.5-11.5T400-560v-80h-80v80q0 17 11.5 28.5T360-520Z"/></svg>
<svg xmlns="http://www.w3.org/2000/svg" viewBox="0 0 1440 320"><path fill="#273036" fill-opacity="1" d="M0,256L1440,96L1440,320L0,320Z"></path></svg>
        <svg xmlns="http://www.w3.org/2000/svg" viewBox="0 0 1440 320"><path fill="#273036" fill-opacity="1" d="M0,32L120,32C240,32,480,32,720,53.3C960,75,1200,117,1320,138.7L1440,160L1440,320L1320,320C1200,320,960,320,720,320C480,320,240,320,120,320L0,320Z"></path></svg>
